<svg xmlns="http://www.w3.org/2000/svg" version="1.1" xmlns:xlink="http://www.w3.org/1999/xlink" xmlns:svgjs="http://svgjs.dev/svgjs" width="100%" height="100%" viewBox="0 0 1000 600"><rect width="1000" height="600" x="0" y="0" fill="aliceblue"/><g><circle r="166.66666666666666" cx="525.9945170084635" cy="548.2166991407673" fill="black" transform="matrix(0.3478717766373301,0,0,0.3478717766373301,0,109.29089433174043)"/><path d="M485.31505847295244 519.8006910541349L485.31505847295244 519.8006910541349Q486.13829844029505 515.7128788025027 486.13829844029505 511.4263534553049L486.13829844029505 511.4263534553049Q486.13829844029505 491.6118190689207 466.7211902450417 491.6118190689207L466.7211902450417 491.6118190689207Q457.9210388700001 491.6118190689207 451.7893204925516 495.2738175443413L451.7893204925516 495.2738175443413Q446.0834158913149 502.03006279356686 446.0834158913149 511.4263534553049L446.0834158913149 511.4263534553049Q446.0834158913149 517.5580718327533 451.39189430142073 521.9581475202742Q456.70037271152654 526.358223207795 464.5637337789025 528.7995555247421Q472.45548243135926 531.2408878416891 481.65305999753184 534.9312739021905Q490.8506375637045 538.6216599626919 498.71399863108047 542.7946349695665Q506.57735969845646 546.9959975615218 511.8858381085622 555.2567848200288Q517.1943165186681 563.5459596636164 517.1943165186681 574.7874433556051L517.1943165186681 574.7874433556051Q517.1943165186681 596.2484576766747 500.75790475689655 609.7325605900448Q484.2931054100444 623.2166635034152 461.2139987393705 623.2166635034152L461.2139987393705 623.2166635034152Q442.591742926379 623.2166635034152 429.6186165444627 613.9339231820004Q416.6454901625464 604.6227952755046 416.6454901625464 587.8741200778445L416.6454901625464 587.8741200778445Q416.6454901625464 579.2726817983682 421.86880581740985 573.4532268568084Q427.06373388719254 567.6337719152486 434.33095566787216 567.6337719152486Q441.569789863471 567.6337719152486 445.0614628284069 569.4789649454992L445.0614628284069 569.4789649454992Q443.41498289372163 575.6106833229478 443.41498289372163 580.5217355419227L443.41498289372163 580.5217355419227Q443.41498289372163 591.5361185532652 449.6602516114932 597.9801003666021Q455.8771327441839 604.4240821799392 466.9199033406072 604.4240821799392Q477.9626739370305 604.4240821799392 484.7189191862561 598.6897899936216Q491.44677685040085 592.983885392385 491.44677685040085 583.4740443903238Q491.44677685040085 573.9642033882626 483.9808419741558 567.832485010814Q476.54329468299153 561.7007666333657 465.8979502776991 558.0387681579451Q455.2809934574875 554.3483820974438 444.63564905219516 550.2605698458115Q434.01869223198355 546.1727575941793 426.55275735573855 538.1106834312378Q419.08682247949343 530.0202216832156 419.08682247949343 517.7567849283188L419.08682247949343 517.7567849283188Q419.08682247949343 498.53838982863095 435.75033492191113 485.87752688260315Q452.41384736432883 473.21666393657546 473.4774354942673 473.21666393657546L473.4774354942673 473.21666393657546Q489.0054445334538 473.21666393657546 500.3320909806849 479.43354506926624Q511.6871250129968 485.6788137870377 511.6871250129968 498.33967673306546L511.6871250129968 498.33967673306546Q511.6871250129968 507.5372542992381 505.7541197311138 513.9812361125751Q499.8211144492309 520.4252179259121 490.8506375637045 520.4252179259121L490.8506375637045 520.4252179259121Q488.3809176616767 520.4252179259121 485.31505847295244 519.8006910541349ZM540.9263376461998 475.03346938174536L540.9263376461998 475.03346938174536L584.0470793839041 475.6579962535225Q617.5728173643049 475.6579962535225 633.1008264034914 473.21666393657546L633.1008264034914 473.21666393657546Q635.3434456248731 477.5031892837732 635.3434456248731 483.01038078944447Q635.3434456248731 488.54595988019645 630.4323934058982 492.91764798263654Q625.5213411869232 497.31772367015736 618.594770427213 497.31772367015736L618.594770427213 497.31772367015736L595.0898499803275 494.6776782576449Q595.0898499803275 496.0970575116839 594.0678969174194 507.3385412036726L594.0678969174194 507.3385412036726Q591.2007508242607 534.9312739021905 591.2007508242607 562.7227196962738Q591.2007508242607 590.5141654903571 595.4872761714583 618.3339988695211L595.4872761714583 618.3339988695211Q588.7310309222328 620.7753311864683 581.3786463863108 620.7753311864683Q574.0262618503889 620.7753311864683 568.7177834402831 616.5739685945127Q563.4093050301774 612.4009935876381 563.4093050301774 603.913105648485Q563.4093050301774 595.425217709332 565.4532111559935 573.9642033882626Q567.4971172818097 552.503189067193 567.4971172818097 532.1776781493548Q567.4971172818097 511.8237796464358 565.4532111559935 494.2518644814332L565.4532111559935 494.2518644814332Q540.6992369655536 495.4725306399067 526.8177078610523 501.20682282622425L526.8177078610523 501.20682282622425Q524.3479879590245 496.49448370281476 524.3479879590245 490.67502876125496Q524.3479879590245 484.8555738196951 529.0603270824339 479.94452160072024Q533.7726662058434 475.03346938174536 540.9263376461998 475.03346938174536Z " fill="aliceblue" transform="matrix(0.3478717766373301,0,0,0.3478717766373301,0,109.29089433174043)"/><path d="M842.1355519756517 523.6085713469422L842.1355519756517 523.6085713469422Q842.9284794185251 519.6712764581915 842.9284794185251 515.5425852901265L842.9284794185251 515.5425852901265Q842.9284794185251 496.45764200993193 824.226328696959 496.45764200993193L824.226328696959 496.45764200993193Q815.7502077558984 496.45764200993193 809.8442654227722 499.9848020144378L809.8442654227722 499.9848020144378Q804.348457973891 506.49227551112307 804.348457973891 515.5425852901265L804.348457973891 515.5425852901265Q804.348457973891 521.4485276232526 809.4614728641436 525.6865880937829Q814.5744877543964 529.9246485643132 822.1483119501183 532.2760885673172Q829.7494784714565 534.6275285703211 838.6083919711457 538.1820309004434Q847.4673054708348 541.7365332305656 855.0411296665568 545.7558550961652Q862.6149538622788 549.8025192873813 867.7279687525314 557.7591360417317Q872.8409836427842 565.7430951216985 872.8409836427842 576.5706560657629L872.8409836427842 576.5706560657629Q872.8409836427842 597.2414542317044 857.0097771109322 610.2290588994586Q841.1512282534638 623.2166635672129 818.921917527392 623.2166635672129L818.921917527392 623.2166635672129Q800.985351923083 623.2166635672129 788.4899091164227 614.2757230906748Q775.9944663097624 605.3074402885202 775.9944663097624 589.1754681748887L775.9944663097624 589.1754681748887Q775.9944663097624 580.8907435131423 781.025454223166 575.2855667617957Q786.0290998109535 569.6803900104492 793.0287351687325 569.6803900104492Q800.0010282008953 569.6803900104492 803.3641342517033 571.4576411755104L803.3641342517033 571.4576411755104Q801.7782793659565 577.3635835086363 801.7782793659565 582.0938058402605L801.7782793659565 582.0938058402605Q801.7782793659565 592.7026281793947 807.7935910015478 598.9093360943002Q813.781560311523 605.116044009206 824.4177249762732 605.116044009206Q835.0538896410235 605.116044009206 841.5613631377088 599.5928942347084Q848.0414943087777 594.0970867858271 848.0414943087777 584.9374077043583Q848.0414943087777 575.7777286228895 840.8504626716843 569.8717862897636Q833.6867733602073 563.9658439566374 823.4334012540855 560.4386839521316Q813.2073714735802 556.8841816220094 802.9539993674584 552.9468867332586Q792.727969586953 549.0095918445079 785.5369379498596 541.2443713694717Q778.3459063127663 533.4518085688192 778.3459063127663 521.6399239025668L778.3459063127663 521.6399239025668Q778.3459063127663 503.1291694603151 794.3958514495488 490.93449223543433Q810.4457965863314 478.73981501055357 830.7338021936442 478.73981501055357L830.7338021936442 478.73981501055357Q845.6900543057739 478.73981501055357 856.5996422266874 484.72778432052866Q867.5365724732171 490.74309595612004 867.5365724732171 502.93777318100086L867.5365724732171 502.93777318100086Q867.5365724732171 511.79668668069 861.8220264194053 518.0033945955956Q856.1074803655935 524.2101025105014 847.4673054708348 524.2101025105014L847.4673054708348 524.2101025105014Q845.0885231422146 524.2101025105014 842.1355519756517 523.6085713469422ZM978.95654935974 528.1473973992522L978.95654935974 528.1473973992522Q973.652138190173 550.7868430095689 973.652138190173 573.5083155967347Q973.652138190173 596.2571305095169 978.7651530804258 618.513783561205L978.7651530804258 618.513783561205Q971.6834907457977 620.8652235642089 964.1916935269247 620.8652235642089Q956.7272386336681 620.8652235642089 953.774267467105 616.4357668143643Q950.821296300542 612.0063100645198 950.821296300542 603.6395584259244Q950.821296300542 595.272806787329 953.3641325828602 580.6993472338281L953.3641325828602 580.6993472338281Q939.3922041929183 610.6391937837034 926.4045995251641 618.513783561205L926.4045995251641 618.513783561205Q920.498657192038 622.0409435657109 914.182579974667 622.0409435657109L914.182579974667 622.0409435657109Q899.2263278625375 622.0409435657109 890.9689455264073 610.9126170398667Q882.684220864661 599.8116328396388 882.684220864661 583.2695258417625L882.684220864661 583.2695258417625Q882.684220864661 558.0599016235112 896.6834915802192 539.0569853201657Q910.6554199701611 520.0814113424364 932.9940999986983 520.0814113424364Q955.3327800272356 520.0814113424364 978.95654935974 528.1473973992522ZM953.1727363035459 539.9592820655043L953.1727363035459 539.9592820655043Q942.7279679181099 536.8149146196271 935.4549093041675 536.8149146196271L935.4549093041675 536.8149146196271Q920.6900534713523 536.8149146196271 913.4169948574099 543.295045790696L913.4169948574099 543.295045790696Q906.7181250814103 559.8371527885724 906.7181250814103 576.9534486243915L906.7181250814103 576.9534486243915Q906.7181250814103 586.0311007290113 909.5617269455081 595.272806787329Q912.4326711352222 604.5145128456468 918.3386134683483 604.5145128456468L918.3386134683483 604.5145128456468Q925.2288795236622 604.5145128456468 936.0564404677267 584.2538495639503Q946.8840014117912 563.9658439566374 953.1727363035459 539.9592820655043ZM998.4516275241795 600.7959565618266L998.4516275241795 600.7959565618266L1000.4202749685548 559.8371527885724Q1000.4202749685548 540.7522095083777 994.8971251940573 523.6085713469422L994.8971251940573 523.6085713469422Q1000.4202749685548 521.2571313439383 1008.4862610253706 521.2571313439383L1008.4862610253706 521.2571313439383Q1024.2354405803735 521.2571313439383 1024.2354405803735 538.7835620640024L1024.2354405803735 538.7835620640024Q1024.2354405803735 548.6267992858793 1022.0753968566839 566.4266532621066Q1019.9153531329944 584.2538495639503 1019.9153531329944 592.3198356207661L1019.9153531329944 592.3198356207661Q1019.9153531329944 602.1630728426428 1028.7742666326835 602.1630728426428L1028.7742666326835 602.1630728426428Q1034.0786778022505 602.1630728426428 1041.2697094393438 593.1947900404884Q1048.4607410764372 584.2538495639503 1053.6831252691552 573.1255230381062Q1058.8781671362567 561.997196512262 1059.8624908584447 554.915534177634L1059.8624908584447 554.915534177634Q1058.6867708569425 533.2604122895049 1056.526727133253 523.6085713469422L1056.526727133253 523.6085713469422Q1062.8154620250075 521.2571313439383 1069.432304824158 521.2571313439383Q1076.0218052976925 521.2571313439383 1080.451262047537 525.3858225120034Q1084.8807187973816 529.5145136800684 1084.8807187973816 535.6118522925087Q1084.8807187973816 541.7365332305656 1083.1034676323206 555.8998578998217Q1081.3262164672594 570.0631825690778 1081.3262164672594 585.5389388679175Q1081.3262164672594 600.9873528411408 1084.8807187973816 618.513783561205L1084.8807187973816 618.513783561205Q1077.1975252991942 620.8652235642089 1071.1001866867541 620.8652235642089L1071.1001866867541 620.8652235642089Q1058.8781671362567 620.8652235642089 1058.8781671362567 604.7332514505774L1058.8781671362567 604.7332514505774Q1058.8781671362567 597.624246790333 1060.4640220220035 585.0467770068237L1060.4640220220035 585.0467770068237Q1052.5894322445024 601.7802802840142 1041.2697094393438 611.8969407620543Q1029.9499866341853 622.0409435657109 1018.3294982472474 622.0409435657109L1018.3294982472474 622.0409435657109Q998.4516275241795 622.0409435657109 998.4516275241795 600.7959565618266ZM1133.9055086274516 618.513783561205Q1127.7808276893948 620.8652235642089 1120.8905616340812 620.8652235642089Q1114.0002955787672 620.8652235642089 1109.7895774338533 617.6114868158663Q1105.5515169633231 614.3577500675237 1105.5515169633231 608.5611770368628Q1105.5515169633231 602.764604006202 1107.3287681283841 587.3982170098275Q1109.0786769678289 572.0318300134531 1109.0786769678289 557.5677397624174Q1109.0786769678289 543.1036495113817 1104.5671932411353 523.6085713469422L1104.5671932411353 523.6085713469422Q1110.8559281328899 521.2571313439383 1116.9532667453304 521.2571313439383Q1123.0779476833873 521.2571313439383 1127.5074044332318 525.3858225120034Q1131.9368611830764 529.5145136800684 1131.9368611830764 536.4047797353821L1131.9368611830764 536.4047797353821Q1131.9368611830764 539.9592820655043 1130.733798855958 546.9315750976672Q1129.5580788544562 553.9312104554463 1129.3666825751418 557.4857127855685L1129.3666825751418 557.4857127855685Q1137.049876073329 539.9592820655043 1147.5766714356141 530.0066755411622Q1158.1034667978988 520.0814113424364 1168.5482351833348 520.0814113424364L1168.5482351833348 520.0814113424364Q1175.8212937972771 520.0814113424364 1180.168723570273 525.194426232689Q1184.488811017652 530.3074411229418 1184.488811017652 538.0726615979779Q1184.488811017652 545.8652243986305 1180.5515161289013 550.6774737071037Q1176.6142212401508 555.5170653411931 1170.81764820949 555.5170653411931Q1164.9937328532128 555.5170653411931 1161.466572848707 554.3140030140748L1161.466572848707 554.3140030140748Q1162.0407616866496 551.9625630110709 1162.0407616866496 549.9939155666955L1162.0407616866496 549.9939155666955Q1162.0407616866496 541.9279295098797 1156.3262156328378 541.9279295098797L1156.3262156328378 541.9279295098797Q1147.686040738079 541.9279295098797 1140.084874216741 559.3449909274785Q1132.511050021019 576.7620523450773 1129.9682137387008 591.9370430621375L1129.9682137387008 591.9370430621375Q1130.9525374608884 606.7018988949528 1133.9055086274516 618.513783561205L1133.9055086274516 618.513783561205ZM1284.8898306807964 528.1473973992522L1284.8898306807964 528.1473973992522Q1279.5854195112292 550.7868430095689 1279.5854195112292 573.5083155967347Q1279.5854195112292 596.2571305095169 1284.6984344014818 618.513783561205L1284.6984344014818 618.513783561205Q1277.6167720668539 620.8652235642089 1270.1249748479809 620.8652235642089Q1262.633177629108 620.8652235642089 1259.680206462545 616.4357668143643Q1256.7272352959817 612.0063100645198 1256.7272352959817 603.6395584259244Q1256.7272352959817 595.272806787329 1259.2974139039165 580.6993472338281L1259.2974139039165 580.6993472338281Q1245.3254855139744 610.6391937837034 1232.3378808462203 618.513783561205L1232.3378808462203 618.513783561205Q1226.4319385130943 622.0409435657109 1220.1158612957233 622.0409435657109L1220.1158612957233 622.0409435657109Q1205.1596091835936 622.0409435657109 1196.9022268474637 610.9126170398667Q1188.617502185717 599.8116328396388 1188.617502185717 583.2695258417625L1188.617502185717 583.2695258417625Q1188.617502185717 558.0599016235112 1202.5894305756592 539.0569853201657Q1216.5887012912171 520.0814113424364 1238.9273813197547 520.0814113424364Q1261.2660613482917 520.0814113424364 1284.8898306807964 528.1473973992522ZM1259.106017624602 539.9592820655043L1259.106017624602 539.9592820655043Q1248.661249239166 536.8149146196271 1241.3881906252236 536.8149146196271L1241.3881906252236 536.8149146196271Q1226.6233347924085 536.8149146196271 1219.32293385285 543.295045790696L1219.32293385285 543.295045790696Q1212.6514064024668 559.8371527885724 1212.6514064024668 576.9534486243915L1212.6514064024668 576.9534486243915Q1212.6514064024668 586.0311007290113 1215.4950082665644 595.272806787329Q1218.338610130662 604.5145128456468 1224.2445524637883 604.5145128456468L1224.2445524637883 604.5145128456468Q1231.134818519102 604.5145128456468 1241.9623794631666 584.2538495639503Q1252.789940407231 563.9658439566374 1259.106017624602 539.9592820655043ZM1302.224865121546 613.9749575088952L1302.224865121546 613.9749575088952Q1306.7363488482397 574.793404900702 1306.7363488482397 560.0285490678866L1306.7363488482397 560.0285490678866Q1306.7363488482397 518.6869527360038 1303.4005851230481 475.5681052390599L1303.4005851230481 475.5681052390599Q1309.306527456174 473.216665236056 1316.0053972321737 473.216665236056Q1322.6769246825568 473.216665236056 1327.4071470141812 477.7554912883658Q1332.1373693458054 482.2669750150594 1332.1373693458054 489.15724107037323L1332.1373693458054 489.15724107037323Q1332.1373693458054 500.9691257366255 1329.7859293428014 526.8623080952849Q1327.4071470141812 552.7554904539443 1326.8329581762382 561.4230076743193L1326.8329581762382 561.4230076743193Q1342.9649302898697 531.1003685658152 1358.905506124187 523.6085713469422L1358.905506124187 523.6085713469422Q1365.9871684588152 520.0814113424364 1374.0804968412472 520.0814113424364L1374.0804968412472 520.0814113424364Q1385.0994540646261 520.0814113424364 1391.0874233746013 531.6745574037581Q1397.1027350101926 543.295045790696 1397.1027350101926 560.0285490678866L1397.1027350101926 560.0285490678866Q1397.1027350101926 586.7966858462685 1382.5292754566915 604.4324858687978Q1367.9558159031903 622.0409435657109 1344.8242084317799 622.0409435657109Q1321.6926009603692 622.0409435657109 1302.224865121546 613.9749575088952ZM1325.8486344540506 601.5615416790838L1325.8486344540506 601.5615416790838Q1333.7232242315522 604.5145128456468 1344.5507851756165 604.5145128456468Q1355.378346119681 604.5145128456468 1363.2529358971826 600.3858216775818L1363.2529358971826 600.3858216775818Q1372.8774345141287 583.8437146797053 1372.8774345141287 564.3759788408822L1372.8774345141287 564.3759788408822Q1372.8774345141287 555.1069304569482 1370.7173907904391 546.3573862597243Q1368.5573470667496 537.5804997368841 1363.8271247351254 537.5804997368841L1363.8271247351254 537.5804997368841Q1356.554066121183 537.5804997368841 1344.7421814549307 557.6771090648828Q1332.9302967886786 577.7463760672649 1325.8486344540506 601.5615416790838ZM1504.2026244493359 541.3263983463206L1504.2026244493359 541.3263983463206L1502.2339770049607 584.6366421225787Q1502.2339770049607 601.9716765633286 1507.9485230587725 619.6895035627069L1507.9485230587725 619.6895035627069Q1501.8238421207157 622.0409435657109 1495.5351072289614 622.0409435657109L1495.5351072289614 622.0409435657109Q1478.4188113931418 622.0409435657109 1478.4188113931418 603.940324007704L1478.4188113931418 603.940324007704Q1478.4188113931418 590.5425844557049 1480.7702513961458 572.441964897698Q1483.1216913991498 554.3140030140748 1483.1216913991498 550.1853118460098L1483.1216913991498 550.1853118460098Q1483.1216913991498 539.9592820655043 1473.8799853408318 539.9592820655043L1473.8799853408318 539.9592820655043Q1464.036748118955 539.9592820655043 1452.0334671733885 558.3606672052908Q1440.030186227822 576.7620523450773 1438.252935062761 589.1754681748887L1438.252935062761 589.1754681748887Q1438.6357276213894 594.8900142287005 1442.1902299515118 618.513783561205L1442.1902299515118 618.513783561205Q1436.0928913390712 620.8652235642089 1428.7924903995126 620.8652235642089L1428.7924903995126 620.8652235642089Q1413.6448420080687 620.8652235642089 1413.6448420080687 606.1003677313936L1413.6448420080687 606.1003677313936Q1413.6448420080687 599.0187053967654 1415.8048857317585 578.2385379283587Q1417.9649294554483 557.4857127855685 1417.9649294554483 544.8809006764428L1417.9649294554483 544.8809006764428Q1417.9649294554483 502.93777318100086 1413.2347071238241 475.5681052390599L1413.2347071238241 475.5681052390599Q1419.5507843411951 473.216665236056 1426.2496541171945 473.216665236056Q1432.9211815675776 473.216665236056 1437.3506383174222 477.64612198590055Q1441.7800950672668 482.0755787357452 1441.7800950672668 489.75877223393235Q1441.7800950672668 497.4419657321196 1439.7294206460424 521.4485276232526Q1437.6514038992018 545.4550895143857 1437.6514038992018 558.8528290663846L1437.6514038992018 558.8528290663846Q1444.5416699545158 544.2793695128837 1457.8300402040495 532.1667192648518Q1471.1184104535832 520.0814113424364 1484.3247537262678 520.0814113424364L1484.3247537262678 520.0814113424364Q1504.2026244493359 520.0814113424364 1504.2026244493359 541.3263983463206ZM1590.2215808382934 480.4897238499983L1590.2215808382934 480.4897238499983L1631.7545734494902 481.0912550135575Q1664.0458600023699 481.0912550135575 1679.0021121144991 478.73981501055357L1679.0021121144991 478.73981501055357Q1681.1894981638052 482.8685061786186 1681.1894981638052 488.17291734818554Q1681.1894981638052 493.50467084336884 1676.459275832181 497.7153889882828Q1671.7290535005573 501.95344945881317 1665.0301837245574 501.95344945881317L1665.0301837245574 501.95344945881317L1642.3907381142408 499.41061317649496Q1642.3907381142408 500.7777294573112 1641.4064143920527 511.6052904013757L1641.4064143920527 511.6052904013757Q1638.6448395048042 538.1820309004434 1638.6448395048042 564.9501676788251Q1638.6448395048042 591.7183044572068 1642.8008729984854 618.513783561205L1642.8008729984854 618.513783561205Q1636.2933995018002 620.8652235642089 1629.211737167172 620.8652235642089Q1622.1300748325439 620.8652235642089 1616.989717616675 616.8185593729929Q1611.876702726422 612.7992375073932 1611.876702726422 604.623882148112Q1611.876702726422 596.448526788831 1613.8453501707977 575.7777286228895Q1615.8139976151733 555.1069304569482 1615.8139976151733 535.5298253156598Q1615.8139976151733 515.925377848755 1613.8453501707977 499.0004782922501L1613.8453501707977 499.0004782922501Q1590.0301845589793 500.17619829375207 1576.63244500698 505.6993480682496L1576.63244500698 505.6993480682496Q1574.2810050039761 501.16052201593976 1574.2810050039761 495.5553452645932Q1574.2810050039761 489.95016851324664 1578.8198310562857 485.2199461816225Q1583.3313147829795 480.4897238499983 1590.2215808382934 480.4897238499983ZM1763.4625559433262 528.1473973992522L1763.4625559433262 528.1473973992522Q1758.158144773759 550.7868430095689 1758.158144773759 573.5083155967347Q1758.158144773759 596.2571305095169 1763.271159664012 618.513783561205L1763.271159664012 618.513783561205Q1756.1894973293838 620.8652235642089 1748.6977001105106 620.8652235642089Q1741.233245217254 620.8652235642089 1738.2802740506909 616.4357668143643Q1735.3273028841281 612.0063100645198 1735.3273028841281 603.6395584259244Q1735.3273028841281 595.272806787329 1737.8701391664463 580.6993472338281L1737.8701391664463 580.6993472338281Q1723.8982107765041 610.6391937837034 1710.91060610875 618.513783561205L1710.91060610875 618.513783561205Q1705.004663775624 622.0409435657109 1698.688586558253 622.0409435657109L1698.688586558253 622.0409435657109Q1683.7323344461233 622.0409435657109 1675.4749521099934 610.9126170398667Q1667.1902274482472 599.8116328396388 1667.1902274482472 583.2695258417625L1667.1902274482472 583.2695258417625Q1667.1902274482472 558.0599016235112 1681.1894981638052 539.0569853201657Q1695.1614265537473 520.0814113424364 1717.5001065822844 520.0814113424364Q1739.8387866108214 520.0814113424364 1763.4625559433262 528.1473973992522ZM1737.678742887132 539.9592820655043L1737.678742887132 539.9592820655043Q1727.2339745016957 536.8149146196271 1719.9609158877538 536.8149146196271L1719.9609158877538 536.8149146196271Q1705.1960600549382 536.8149146196271 1697.923001440996 543.295045790696L1697.923001440996 543.295045790696Q1691.2241316649965 559.8371527885724 1691.2241316649965 576.9534486243915L1691.2241316649965 576.9534486243915Q1691.2241316649965 586.0311007290113 1694.0677335290943 595.272806787329Q1696.9386777188083 604.5145128456468 1702.8446200519343 604.5145128456468L1702.8446200519343 604.5145128456468Q1709.7348861072483 604.5145128456468 1720.5624470513126 584.2538495639503Q1731.3900079953773 563.9658439566374 1737.678742887132 539.9592820655043ZM1931.2077235994775 541.3263983463206L1931.2077235994775 541.3263983463206L1929.2390761551023 583.4609221210769Q1929.2390761551023 602.5458654012714 1934.7348836039837 619.6895035627069L1934.7348836039837 619.6895035627069Q1929.2390761551023 622.0409435657109 1922.130071494858 622.0409435657109L1922.130071494858 622.0409435657109Q1905.3965682176672 622.0409435657109 1905.3965682176672 603.3387928441448L1905.3965682176672 603.3387928441448Q1905.3965682176672 594.8900142287005 1907.5839542669733 574.9027742031672Q1909.7439979906626 554.915534177634 1909.7439979906626 549.8025192873813L1909.7439979906626 549.8025192873813Q1909.7439979906626 539.9592820655043 1901.6780119338468 539.9592820655043L1901.6780119338468 539.9592820655043Q1892.8190984341577 539.9592820655043 1880.5150519068115 558.0599016235112Q1868.2110053794654 576.1878635071344 1868.2110053794654 586.4138932876399L1868.2110053794654 586.4138932876399Q1869.1953291016534 601.9716765633286 1873.7068128283468 617.3107212340867L1873.7068128283468 617.3107212340867Q1866.2423579350902 619.6895035627069 1861.1020007192215 619.6895035627069L1861.1020007192215 619.6895035627069Q1844.3684974420307 619.6895035627069 1844.3684974420307 600.9873528411408L1844.3684974420307 600.9873528411408Q1844.3684974420307 593.1127630636395 1846.5558834913363 574.6020086213875Q1848.715927215026 556.0912541791358 1848.715927215026 551.3610318475118L1848.715927215026 551.3610318475118Q1848.715927215026 541.5177946256349 1839.857013715337 541.5177946256349L1839.857013715337 541.5177946256349Q1833.7596751028968 541.5177946256349 1825.8850853253953 550.5954467302547Q1818.0104955478937 559.645756509258 1812.5967150758615 570.5553444301715Q1807.182934603829 581.4922746767015 1806.7727997195843 587.9997481733867L1806.7727997195843 587.9997481733867Q1807.757123441772 604.9246477298916 1810.710094608335 618.513783561205L1810.710094608335 618.513783561205Q1804.4213597165804 620.8652235642089 1797.613120638115 620.8652235642089Q1790.832223885267 620.8652235642089 1786.5941634147366 617.6114868158663Q1782.3561029442062 614.3577500675237 1782.3561029442062 608.5611770368628Q1782.3561029442062 602.764604006202 1784.1333541092677 587.6989825916071Q1785.9106052743286 572.6333611770124 1785.9106052743286 557.7591360417317Q1785.9106052743286 542.9122532320674 1781.3717792220186 523.6085713469422L1781.3717792220186 523.6085713469422Q1787.6878564393896 521.2571313439383 1794.7695187740178 521.2571313439383Q1801.8511811086455 521.2571313439383 1806.2806378584905 525.3858225120034Q1810.710094608335 529.5145136800684 1810.710094608335 536.4047797353821L1810.710094608335 536.4047797353821Q1810.710094608335 539.9592820655043 1809.3429783275187 553.739814176132L1809.3429783275187 553.739814176132Q1816.616036941461 540.7522095083777 1827.8537327697704 531.1823955426642Q1839.0640862724636 521.6399239025668 1850.2744397751567 521.6399239025668L1850.2744397751567 521.6399239025668Q1870.179652823841 521.6399239025668 1870.179652823841 542.9122532320674L1870.179652823841 542.9122532320674Q1870.179652823841 548.2166644016345 1869.5781216602818 554.7241378983197L1869.5781216602818 554.7241378983197Q1876.8511802742241 540.943605787692 1888.3896416843131 530.4988374022561Q1899.9007607687859 520.0814113424364 1911.3025105507932 520.0814113424364L1911.3025105507932 520.0814113424364Q1931.2077235994775 520.0814113424364 1931.2077235994775 541.3263983463206ZM1954.8314929319822 613.9749575088952L1954.8314929319822 613.9749575088952Q1959.3429766586755 574.793404900702 1959.3429766586755 560.0285490678866L1959.3429766586755 560.0285490678866Q1959.3429766586755 518.6869527360038 1956.007212933484 475.5681052390599L1956.007212933484 475.5681052390599Q1961.9131552666104 473.216665236056 1968.6120250426097 473.216665236056Q1975.2835524929928 473.216665236056 1980.013774824617 477.7554912883658Q1984.7439971562412 482.2669750150594 1984.7439971562412 489.15724107037323L1984.7439971562412 489.15724107037323Q1984.7439971562412 500.9691257366255 1982.3925571532372 526.8623080952849Q1980.013774824617 552.7554904539443 1979.439585986674 561.4230076743193L1979.439585986674 561.4230076743193Q1995.571558100306 531.1003685658152 2011.5121339346229 523.6085713469422L2011.5121339346229 523.6085713469422Q2018.593796269251 520.0814113424364 2026.687124651683 520.0814113424364L2026.687124651683 520.0814113424364Q2037.706081875062 520.0814113424364 2043.694051185037 531.6745574037581Q2049.7093628206285 543.295045790696 2049.7093628206285 560.0285490678866L2049.7093628206285 560.0285490678866Q2049.7093628206285 586.7966858462685 2035.1359032671276 604.4324858687978Q2020.5624437136266 622.0409435657109 1997.4308362422157 622.0409435657109Q1974.2992287708053 622.0409435657109 1954.8314929319822 613.9749575088952ZM1978.4552622644865 601.5615416790838L1978.4552622644865 601.5615416790838Q1986.329852041988 604.5145128456468 1997.1574129860523 604.5145128456468Q2007.9849739301171 604.5145128456468 2015.8595637076187 600.3858216775818L2015.8595637076187 600.3858216775818Q2025.484062324565 583.8437146797053 2025.484062324565 564.3759788408822L2025.484062324565 564.3759788408822Q2025.484062324565 555.1069304569482 2023.3240186008752 546.3573862597243Q2021.1639748771854 537.5804997368841 2016.4337525455617 537.5804997368841L2016.4337525455617 537.5804997368841Q2009.1606939316189 537.5804997368841 1997.3488092653665 557.6771090648828Q1985.5369245991146 577.7463760672649 1978.4552622644865 601.5615416790838ZM2101.6871238172616 623.2166635672129Q2080.0320019291325 623.2166635672129 2069.7786298230108 610.5298244812382Q2059.552600042505 597.8429853952637 2059.552600042505 575.0941704824816Q2059.552600042505 552.3453555696994 2073.1417358738186 535.6118522925087Q2086.730871705132 518.8783490153181 2107.9758587090164 518.8783490153181L2107.9758587090164 518.8783490153181Q2151.696237369519 518.8783490153181 2151.696237369519 568.0945351247024L2151.696237369519 568.0945351247024Q2151.696237369519 591.1441156192641 2137.5055703746466 607.1940607560466Q2123.3422457053907 623.2166635672129 2101.6871238172616 623.2166635672129ZM2087.496456822389 540.5334709034472L2087.496456822389 540.5334709034472Q2083.9692968178833 551.9625630110709 2083.9692968178833 563.3916551186946Q2083.9692968178833 574.793404900702 2084.7622242607567 581.109482118073Q2085.527809378014 587.3982170098275 2087.71519542732 593.6869519015822L2087.71519542732 593.6869519015822Q2092.2266791540133 606.4831602900222 2105.515049403547 606.4831602900222Q2118.8034196530807 606.4831602900222 2123.041480123611 599.401497955394Q2127.2795405941415 592.3198356207661 2127.2795405941415 577.5549797879507L2127.2795405941415 577.5549797879507Q2127.2795405941415 535.6118522925087 2107.4016698710734 535.6118522925087L2107.4016698710734 535.6118522925087Q2095.97257776345 535.6118522925087 2087.496456822389 540.5334709034472ZM2169.4140643688975 475.5681052390599L2169.4140643688975 475.5681052390599Q2175.7027992606522 473.216665236056 2182.401669036652 473.216665236056Q2189.1005388126514 473.216665236056 2193.5299955624964 477.64612198590055Q2197.9594523123405 482.0755787357452 2197.9594523123405 489.6494029314671Q2197.9594523123405 497.223227127189 2195.8814355655 519.972042039971Q2193.803418818659 542.7208569527531 2193.803418818659 555.7084616205074L2193.803418818659 555.7084616205074Q2193.803418818659 587.781009568456 2198.3422448709694 618.513783561205L2198.3422448709694 618.513783561205Q2192.0535099792146 620.8652235642089 2184.94450531897 620.8652235642089L2184.94450531897 620.8652235642089Q2169.7968569275263 620.8652235642089 2169.7968569275263 606.1003677313936L2169.7968569275263 606.1003677313936Q2169.7968569275263 599.0187053967654 2171.9569006512156 578.2385379283587Q2174.1169443749054 557.4857127855685 2174.1169443749054 544.8809006764428L2174.1169443749054 544.8809006764428Q2174.1169443749054 502.93777318100086 2169.4140643688975 475.5681052390599ZM2244.6054598137903 558.8528290663846L2244.6054598137903 558.8528290663846Q2251.4957258691043 544.2793695128837 2265.1668886772663 532.1667192648518Q2278.865393811045 520.0814113424364 2292.837322200987 520.0814113424364L2292.837322200987 520.0814113424364Q2312.5237966447407 520.0814113424364 2312.5237966447407 540.943605787692L2312.5237966447407 540.943605787692Q2312.5237966447407 551.5797704524423 2302.789928725329 563.6650783748578Q2293.0287184803014 575.7777286228895 2281.025437534735 582.8593909575177L2281.025437534735 582.8593909575177Q2286.5485873092325 592.5112319000802 2294.6966003428975 597.542219813484Q2302.871955702178 602.5458654012714 2316.2696952541773 605.4988365678344L2316.2696952541773 605.4988365678344Q2316.2696952541773 613.1820300660218 2312.633165947206 617.6114868158663Q2308.9692943146183 622.0409435657109 2302.2977668642357 622.0409435657109L2302.2977668642357 622.0409435657109Q2288.9000273122365 622.0409435657109 2276.103818923796 609.162708200422Q2263.3076105353566 596.2571305095169 2256.8001370386714 580.3165546751995L2256.8001370386714 580.3165546751995Q2269.4049491477967 574.0004774578285 2278.5646282292655 565.3603025630699Q2287.7243073107343 556.6927853426951 2287.7243073107343 548.0252681223201Q2287.7243073107343 539.3577509019452 2282.3925538155513 539.3577509019452L2282.3925538155513 539.3577509019452Q2272.1665240350458 539.3577509019452 2259.6710812283854 558.0599016235112Q2247.175638421725 576.7620523450773 2245.2069909773495 589.1754681748887L2245.2069909773495 589.1754681748887Q2245.589783535978 594.8900142287005 2249.1442858661003 618.513783561205L2249.1442858661003 618.513783561205Q2243.0196049280435 620.8652235642089 2235.746546314101 620.8652235642089L2235.746546314101 620.8652235642089Q2220.598897922657 620.8652235642089 2220.598897922657 606.1003677313936L2220.598897922657 606.1003677313936Q2220.598897922657 599.0187053967654 2222.758941646347 578.2385379283587Q2224.918985370037 557.4857127855685 2224.918985370037 544.8809006764428L2224.918985370037 544.8809006764428Q2224.918985370037 502.93777318100086 2220.1887630384126 475.5681052390599L2220.1887630384126 475.5681052390599Q2226.5048402557836 473.216665236056 2233.1763677061667 473.216665236056Q2239.875237482166 473.216665236056 2244.3046942320107 477.64612198590055Q2248.7341509818552 482.0755787357452 2248.7341509818552 489.75877223393235Q2248.7341509818552 497.4419657321196 2246.683476560631 521.4485276232526Q2244.6054598137903 545.4550895143857 2244.6054598137903 558.8528290663846ZM2418.4479660823827 528.1473973992522L2418.4479660823827 528.1473973992522Q2413.1162125871992 550.7868430095689 2413.1162125871992 573.5083155967347Q2413.1162125871992 596.2571305095169 2418.229227477452 618.513783561205L2418.229227477452 618.513783561205Q2411.1475651428236 620.8652235642089 2403.683110249567 620.8652235642089Q2396.1913130306943 620.8652235642089 2393.238341864131 616.4357668143643Q2390.285370697568 612.0063100645198 2390.285370697568 603.6395584259244Q2390.285370697568 595.272806787329 2392.8555493055023 580.6993472338281L2392.8555493055023 580.6993472338281Q2378.8562785899444 610.6391937837034 2365.8686739221903 618.513783561205L2365.8686739221903 618.513783561205Q2359.9627315890643 622.0409435657109 2353.673996697309 622.0409435657109L2353.673996697309 622.0409435657109Q2338.71774458518 622.0409435657109 2330.433019923433 610.9126170398667Q2322.1756375873033 599.8116328396388 2322.1756375873033 583.2695258417625L2322.1756375873033 583.2695258417625Q2322.1756375873033 558.0599016235112 2336.1475659772454 539.0569853201657Q2350.119494367187 520.0814113424364 2372.458174395724 520.0814113424364Q2394.824196749878 520.0814113424364 2418.4479660823827 528.1473973992522ZM2392.636810700572 539.9592820655043L2392.636810700572 539.9592820655043Q2382.219384640752 536.8149146196271 2374.9189837011936 536.8149146196271L2374.9189837011936 536.8149146196271Q2360.1541278683785 536.8149146196271 2352.881069254436 543.295045790696L2352.881069254436 543.295045790696Q2346.1821994784364 559.8371527885724 2346.1821994784364 576.9534486243915L2346.1821994784364 576.9534486243915Q2346.1821994784364 586.0311007290113 2349.053143668151 595.272806787329Q2351.896745532248 604.5145128456468 2357.802687865374 604.5145128456468L2357.802687865374 604.5145128456468Q2364.692953920688 604.5145128456468 2375.520514864753 584.2538495639503Q2386.348075808817 563.9658439566374 2392.636810700572 539.9592820655043ZM2464.7111810252036 618.513783561205Q2458.5865000871468 620.8652235642089 2451.696234031833 620.8652235642089Q2444.8059679765192 620.8652235642089 2440.5952498316055 617.6114868158663Q2436.357189361075 614.3577500675237 2436.357189361075 608.5611770368628Q2436.357189361075 602.764604006202 2438.134440526136 587.3982170098275Q2439.884349365581 572.0318300134531 2439.884349365581 557.5677397624174Q2439.884349365581 543.1036495113817 2435.372865638887 523.6085713469422L2435.372865638887 523.6085713469422Q2441.6616005306423 521.2571313439383 2447.7589391430824 521.2571313439383Q2453.883620081139 521.2571313439383 2458.3130768309834 525.3858225120034Q2462.742533580828 529.5145136800684 2462.742533580828 536.4047797353821L2462.742533580828 536.4047797353821Q2462.742533580828 539.9592820655043 2461.53947125371 546.9315750976672Q2460.3637512522077 553.9312104554463 2460.1723549728936 557.4857127855685L2460.1723549728936 557.4857127855685Q2467.855548471081 539.9592820655043 2478.382343833366 530.0066755411622Q2488.9091391956513 520.0814113424364 2499.353907581087 520.0814113424364L2499.353907581087 520.0814113424364Q2506.626966195029 520.0814113424364 2510.974395968025 525.194426232689Q2515.294483415404 530.3074411229418 2515.294483415404 538.0726615979779Q2515.294483415404 545.8652243986305 2511.3571885266533 550.6774737071037Q2507.4198936379025 555.5170653411931 2501.623320607242 555.5170653411931Q2495.799405250965 555.5170653411931 2492.2722452464586 554.3140030140748L2492.2722452464586 554.3140030140748Q2492.8464340844016 551.9625630110709 2492.8464340844016 549.9939155666955L2492.8464340844016 549.9939155666955Q2492.8464340844016 541.9279295098797 2487.13188803059 541.9279295098797L2487.13188803059 541.9279295098797Q2478.491713135831 541.9279295098797 2470.890546614493 559.3449909274785Q2463.316722418771 576.7620523450773 2460.773886136453 591.9370430621375L2460.773886136453 591.9370430621375Q2461.7582098586404 606.7018988949528 2464.7111810252036 618.513783561205L2464.7111810252036 618.513783561205Z " fill="#161b21" transform="matrix(0.3478717766373301,0,0,0.3478717766373301,0,109.29089433174043)"/></g></svg>